<svg height="675" width="618" viewBox="493 40 618 675" style="background-color:transparent;" preserveAspectRatio="xMinYMin meet" xmlns:xlink="http://www.w3.org/1999/xlink" xmlns="http://www.w3.org/2000/svg"><defs><style type="text/css">.svg-txt-center tspan {text-anchor: middle;}.svg-txt-right tspan {text-anchor: end;}</style></defs><g transform="translate(0,0)"><rect style="fill: #000000;fill-opacity: 0;stroke-opacity:0;stroke-width: 1;stroke:%stroke%;" rx="4" height="152" width="296" y="50" x="688"/><text style="font-weight:Normal; font-size: 12px; text-anchor: middle; font-family: arial,helvetica,sans-serif; fill: #333333;" class="svg-txt-center" y="71" x="836"><tspan x="836" font-weight="bold" font-size="36" dy="26">ELF Runtime</tspan><tspan font-weight="bold" font-size="36" dy="36" x="836">Loader Library</tspan><tspan dy="25" x="836">Application and control flow for reading </tspan><tspan dy="17" x="836">and retrieving code and data from static</tspan><tspan dy="17" x="836">ELF files.</tspan></text></g><g transform="translate(0,0)"><g transform="matrix(1,0,0,1,835,281)"><path style="fill:none;stroke:#333333;stroke-width:3.0;;" d="m3.8733882486714384,0.06054345112315795l245.8646087272528,1.3449079495944571l-5.521371424995924,48.51425088847158l-243.9159970557566,-0.19198114668384714z"/></g><text style="font-weight:bold; font-size: 18px; text-anchor: middle; font-family: arial,helvetica,sans-serif; fill: #333333;" class="" y="314" x="960">Elf Run-time Library</text></g><g transform="translate(0,0)"><g transform="matrix(1,0,0,1,566,278)"><path style="fill:none;stroke:#333333;stroke-width:3.0;;" d="m0,0.14916324856439706l221.23006091903977,-0.8972940935192782l1.953439468117711,58.19517637407712l-222.10035351843592,-0.1792296964725185z"/><path style="fill:#333333;stroke:none;stroke-width:3.0;;stroke: none;" d="m91.248274,-6.1981l38.0093,-2.40741l-0.603966,2.40741l3.76254,0.531494l-2.13063,2.4458l-1.31318,1.85211l3.61304,0l-2.87453,2.84827l2.21614,2.70691l-40.9795,2.25l0.300789,-2.40662l-2.71546,-0.902466l3.31823,-1.50378l-3.85104,-3.49121l3.36488,-1.28223l-2.0523,-1.42377l1.93569,-1.62451z"/></g><text style="font-weight:Normal; font-size: 12px; text-anchor: start; font-family: arial,helvetica,sans-serif; fill: #333333;" class="" y="304" x="581"><tspan x="581" font-weight="bold" font-size="24" dy="14">Host Application</tspan></text></g><g transform="translate(0,0)"><path style="fill:none;stroke:#333333;stroke-width:2;;" d="M789,306 C810,306 810,306  831,306"/><polyline style="fill:#ffffff;stroke:#333333;stroke-width:2;fill-opacity:0;" points="813,316 831,306 813,296"/><text style="font-weight:Normal; font-size: 12px; text-anchor: middle; font-family: sans-serif; fill: #333333;" class="" y="291" x="817"/><text style="font-weight:Normal; font-size: 12px; text-anchor: start; font-family: sans-serif; fill: #333333;" class="" y="306" x="810"/><text style="font-weight:Normal; font-size: 12px; text-anchor: middle; font-family: sans-serif; fill: #333333;" class="" y="291" x="803"/></g><g transform="translate(0,0)"><g transform="matrix(1,0,0,1,825,395)"><path style="fill:none;stroke:#333333;stroke-width:3.0;;" d="m0.7573431765336344,29.198391065651524l0,92.008992325812c0,0 56.9656105841423,28.989923713044586 140.5079194831019,26.468152836258763c83.54230347499195,-2.521410829544708 127.21289070955403,-22.68621661556226 127.21289070955403,-22.68621661556226l0,-92.008992325812"/><path style="fill:none;stroke:#333333;stroke-width:3.0;;" d="m141.2576257132092,1.470072885482085c162.70191635181135,9.530450472375898 182.27811660229457,50.41705512641952 0,52.937385814240876c-182.276207365688,2.522851018509177 -193.66512916198198,-64.2792339566781 0,-52.937385814240876z"/></g><text style="font-weight:bold; font-size: 18px; text-anchor: middle; font-family: arial,helvetica,sans-serif; fill: #333333;" class="svg-txt-center" y="486" x="960">Device Storage</text></g><g transform="translate(0,0)"><path style="fill:none;stroke:#333333;stroke-width:2;;" d="M960,333 C960,362 960,362  960,391"/><polyline style="fill:#ffffff;stroke:#333333;stroke-width:2;fill-opacity:0;" points="950,373 960,391 970,373"/><text style="font-weight:Normal; font-size: 12px; text-anchor: middle; font-family: sans-serif; fill: #333333;" class="" y="377" x="975"/><text style="font-weight:Normal; font-size: 12px; text-anchor: start; font-family: sans-serif; fill: #333333;" class="" y="362" x="960"/><text style="font-weight:Normal; font-size: 12px; text-anchor: middle; font-family: sans-serif; fill: #333333;" class="" y="347" x="975"/></g><g transform="translate(0,0)"><path style="fill:none;stroke:#333333;stroke-width:2;;" d="M644,423 C644,381 676,381  676,339"/><polyline style="fill:#ffffff;stroke:#333333;stroke-width:2;fill-opacity:0;" points="685,356 676,339 665,355"/><text style="font-weight:Normal; font-size: 12px; text-anchor: middle; font-family: sans-serif; fill: #333333;" class="" y="346" x="656"/><text style="font-weight:Normal; font-size: 12px; text-anchor: start; font-family: sans-serif; fill: #333333;" class="" y="381" x="660"/><text style="font-weight:Normal; font-size: 12px; text-anchor: middle; font-family: sans-serif; fill: #333333;" class="" y="404" x="633"/></g><g transform="translate(0,0)"><g transform="matrix(1,0,0,1,532,611)"><path style="fill:none;stroke:#333333;stroke-width:3.0;;" d="m1.75070115698889,82.96296523090592l218.1933596120797,-1.3164665188321196l0,-75.96884755291366l-26.853079660378082,0l-1.6809879445718632,-16.21643385655828l-33.56691177879855,0l-3.3575007506692134,14.899967337726158l-78.8849974764737,1.3164665188321196l-6.712741443968134,-12.267916059284179l-28.532943198298057,0l-3.3575007506692134,12.267916059284179l-36.925514447986615,0z"/></g><text style="font-weight:bold; font-size: 18px; text-anchor: middle; font-family: arial,helvetica,sans-serif; fill: #333333;" class="svg-txt-center" y="660" x="642">Target ELF Image</text></g><g transform="translate(0,0)"><path style="fill:none;stroke:#333333;stroke-width:2;;" d="M960,545 C960,545 985.2201418623202,626.7798581376798 960,652 911.9167388793147,700.0832611206853 756,652 756,652"/><polyline style="fill:#ffffff;stroke:#333333;stroke-width:2;fill-opacity:0;" points="775,647 756,652 769,666"/><text style="font-weight:Normal; font-size: 12px; text-anchor: middle; font-family: sans-serif; fill: #333333;" class="" y="667" x="770"/><text style="font-weight:Normal; font-size: 12px; text-anchor: start; font-family: sans-serif; fill: #333333;" class="" y="640" x="960"/><text style="font-weight:Normal; font-size: 12px; text-anchor: middle; font-family: sans-serif; fill: #333333;" class="" y="559" x="975"/></g><g transform="translate(0,0)"><g transform="matrix(1,0,0,1,540,510)"><path style="fill:none;stroke:#333333;stroke-width:3.0;;" d="m206.08621504243754,46.213925279470956c0,7.596276770328026 -8.904789428452766,13.753157306515897 -19.891399397971632,13.753157306515897l-166.24198623992453,0c-10.986609969518867,0 -19.891399397971632,-6.15688053618787 -19.891399397971632,-13.753157306515897l0,-28.490063045984403c0,-7.596276770328026 8.904789428452766,-13.753157306515897 19.891399397971632,-13.753157306515897l169.08294939439955,-3.929358511654419c10.98772772551407,0 19.892517153966836,8.121930106482475 19.892517153966836,15.7182068768105l-2.8421181690033697,30.454339786086184z"/></g><text style="font-weight:bold; font-size: 18px; text-anchor: middle; font-family: arial,helvetica,sans-serif; fill: #333333;" class="svg-txt-center" y="535" x="644">Relocated code (+ data)</text><text style="font-weight:bold; font-size: 18px; text-anchor: middle; font-family: arial,helvetica,sans-serif; fill: #333333;" class="svg-txt-center" y="560" x="644">sections</text></g><g transform="translate(0,0)"><path style="fill:none;stroke:#333333;stroke-width:2;;" d="M642,609 C642,590.5 644,590.5  644,572"/><text style="font-weight:Normal; font-size: 12px; text-anchor: middle; font-family: sans-serif; fill: #333333;" class="" y="587" x="629"/><text style="font-weight:Normal; font-size: 12px; text-anchor: start; font-family: sans-serif; fill: #333333;" class="" y="590" x="643"/><text style="font-weight:Normal; font-size: 12px; text-anchor: middle; font-family: sans-serif; fill: #333333;" class="" y="595" x="627"/></g><g transform="translate(0,0)"><g transform="matrix(1,0,0,1,571,425)"><path style="fill:none;stroke:#333333;stroke-width:3.0;;" d="m143.9645329961525,47.75438945545332c0,7.849485996005627 -6.220570605522027,14.21159588339976 -13.895427330640468,14.21159588339976l-116.1307655073157,0c-7.674856725118442,0 -13.895427330640468,-6.362109887394133 -13.895427330640468,-14.21159588339976l0,-29.439731814183883c0,-7.849485996005627 6.220570605522027,-14.21159588339976 13.895427330640468,-14.21159588339976l118.11536177790589,-4.060337128709566c7.6756375498806415,0 13.896208155402668,8.392661110031892 13.896208155402668,16.242147106037518l-1.9854031228444589,31.469484445622392z"/></g><text style="font-weight:bold; font-size: 14px; text-anchor: middle; font-family: arial,helvetica,sans-serif; fill: #333333;" class="svg-txt-center" y="451" x="644">Function Address</text><text style="font-weight:bold; font-size: 14px; text-anchor: middle; font-family: arial,helvetica,sans-serif; fill: #333333;" class="svg-txt-center" y="470" x="644">(Symbol)</text></g><g transform="translate(0,0)"><path style="fill:none;stroke:#333333;stroke-width:2;;" d="M644,508 C644,498.5 644,498.5  644,489"/><text style="font-weight:Normal; font-size: 12px; text-anchor: middle; font-family: sans-serif; fill: #333333;" class="" y="505" x="629"/><text style="font-weight:Normal; font-size: 12px; text-anchor: start; font-family: sans-serif; fill: #333333;" class="" y="498" x="644"/><text style="font-weight:Normal; font-size: 12px; text-anchor: middle; font-family: sans-serif; fill: #333333;" class="" y="494" x="629"/></g><text style="font-weight:Normal; font-size: 16px; text-anchor: end; font-family: Arial; fill: #ccc;" y="700" x="1096">www.sketchboard.io</text></svg>